{"title":"How to Train Your Dragon - PlayOFF","uid":5640391,"size":1460209580,"categoryP":"video","categoryS":"movies","magnet":"?xt=urn:btih:c79f2cddd6e84f5448ea8c1d7ff9bea9f4f419b5&amp;dn=How+to+Train+Your+Dragon+-+PlayOFF&amp;tr=udp%3A%2F%2Ftracker.openbittorrent.com%3A80&amp;tr=udp%3A%2F%2Fopen.demonii.com%3A1337&amp;tr=udp%3A%2F%2Ftracker.coppersurfer.tk%3A6969&amp;tr=udp%3A%2F%2Fexodus.desync.com%3A6969","seeders":0,"leechers":0,"uploader":"sabina_ihsanova","files":2,"time":1277075814,"description":"::::::::::WWW.SCENETIME.ORG::::::::::::\n\n\n\n\n\n\n\n\n\n\nRelease Info:\n\nName: How to Train Your Dragon\nYear: 2010\nIMDb: http://www.imdb.com/title/tt0892769/\nVideo Source: Japanesse DVDScr\nAudio Source: Russian DVDScr with English track\nAudio Language: English\nVideo QualityVDScr\nEncoder: Fresh @ PlayOFF\n\n\nMedia Info:\n\nGeneral\nComplete name                    : D:How to Train Your Dragon - PlayOFFHow.to.Train.Your.Dragon.(2010).[Fresh].PROPER-PlayOFF.avi\nFormat                           : AVI\nFormat/Info                      : Audio Video Interleave\nFormat profile                   : OpenDML\nFile size                        : 1.36 GiB\nDuration                         : 1h 30mn\nOverall bit rate                 : 2 162 Kbps\nWriting application              : AVI-Mux GUI 1.17.8.3, Feb 16 201019:42:50\n\nVideo\nID                               : 0\nFormat                           : MPEG-4 Visual\nFormat profile                   : Advanced Simple@L5\nFormat settings, BVOP            : Yes\nFormat settings, QPel            : No\nFormat settings, GMC             : No warppoints\nFormat settings, Matrix          : Default (H.263)\nMuxing mode                      : Packed bitstream\nCodec ID                         : XVID\nCodec ID/Hint                    : XviD\nDuration                         : 1h 30mn\nBit rate                         : 1 965 Kbps\nWidth                            : 640 pixels\nHeight                           : 264 pixels\nDisplay aspect ratio             : 2.40:1\nFrame rate                       : 29.970 fps\nColor space                      : YUV\nChroma subsampling               : 4:2:0\nBit depth                        : 8 bits\nScan type                        : Progressive\nBits/(Pixel*Frame)               : 0.388\nStream size                      : 1.24 GiB (91%)\nWriting library                  : XviD 1.2.1 (UTC 2008-12-04)\n\nAudio\nID                               : 1\nFormat                           : MPEG Audio\nFormat version                   : Version 1\nFormat profile                   : Layer 3\nMode                             : Joint stereo\nMode extension                   : MS Stereo\nCodec ID                         : 55\nCodec ID/Hint                    : MP3\nDuration                         : 1h 30mn\nBit rate mode                    : Constant\nBit rate                         : 192 Kbps\nChannel(s)                       : 2 channels\nSampling rate                    : 48.0 KHz\nStream size                      : 124 MiB (9%)\nAlignment                        : Aligned on interleaves\nInterleave, duration             : 416 ms (12.46 video frames)\nInterleave, preload duration     : 216 ms\nWriting library                  : LAME3.98r\nEncoding settings                : -m j -V 4 -q 2 -lowpass 18.6 -b 192\n","torrent":{"xt":"urn:btih:c79f2cddd6e84f5448ea8c1d7ff9bea9f4f419b5","amp;dn":"How+to+Train+Your+Dragon+-+PlayOFF","amp;tr":["udp%3A%2F%2Ftracker.openbittorrent.com%3A80","udp%3A%2F%2Fopen.demonii.com%3A1337","udp%3A%2F%2Ftracker.coppersurfer.tk%3A6969","udp%3A%2F%2Fexodus.desync.com%3A6969"],"infoHash":"c79f2cddd6e84f5448ea8c1d7ff9bea9f4f419b5","infoHashBuffer":{"type":"Buffer","data":[199,159,44,221,214,232,79,84,72,234,140,29,127,249,190,169,244,244,25,181]},"announce":[],"urlList":[]}}